<svg id="Layer_1" data-name="Layer 1" xmlns="http://www.w3.org/2000/svg" viewBox="0 0 300 300"><defs><style>.cls-1{fill:#fff;}</style></defs><path class="cls-1" d="M400,250c0,82.76-67.24,150-150,150S100,332.76,100,250s67.24-150,150-150A149.93,149.93,0,0,1,400,250Zm-12.58,0A137.4,137.4,0,0,0,250,112.58c-75.77,0-137.42,61.65-137.42,137.42S174.23,387.42,250,387.42,387.42,325.77,387.42,250Zm-39.85-24.46-24.31,52.7a11.43,11.43,0,0,1-20.69,0l-21.12-46.41-21.11,46.41a11.43,11.43,0,0,1-20.69,0l-21.1-46.41-21.11,46.41a11.43,11.43,0,0,1-20.69,0l-24.33-52.7a6.7,6.7,0,0,1,12.17-5.6l22.5,50.75,21.53-48.23a10.91,10.91,0,0,1,9.93-6.43,10.75,10.75,0,0,1,9.92,6.43L250,270.69l21.53-48.23a10.9,10.9,0,0,1,9.92-6.43,10.74,10.74,0,0,1,9.93,6.43l21.52,48.23,22.51-50.75a6.69,6.69,0,0,1,12.16,5.6Z" transform="translate(-100 -100)"/></svg>